<svg version="1.1" id="Layer_1" xmlns="http://www.w3.org/2000/svg" xmlns:xlink="http://www.w3.org/1999/xlink" x="0px" y="0px"
	 width="100%" viewBox="0 0 500 250" enable-background="new 0 0 500 250" xml:space="preserve">
<path fill="#008940" opacity="1.000000" stroke="none" 
	d="
M244.000000,251.000000 
	C163.077591,251.000000 82.155190,251.000000 1.000000,251.000000 
	C1.000000,179.979279 1.000000,108.958298 1.350837,37.407066 
	C15.206085,46.574871 28.739998,56.232166 42.208927,65.979248 
	C72.774498,88.098671 102.935219,110.806091 136.950089,127.660263 
	C159.527390,138.847183 182.489578,148.792999 207.848602,151.512817 
	C219.712585,152.785248 231.643692,153.431732 244.000000,154.397522 
	C244.000000,186.512894 244.000000,218.756454 244.000000,251.000000 
z"/>
<path fill="#008940" opacity="1.000000" stroke="none" 
	d="
M501.000000,36.999996 
	C501.000000,108.264999 501.000000,179.529999 501.000000,251.000000 
	C420.312561,251.000000 339.624939,251.000000 258.459534,250.531433 
	C257.981781,218.130035 257.981781,186.197205 257.981781,153.759476 
	C260.568634,153.759476 262.693481,153.834686 264.811676,153.747620 
	C282.124146,153.036041 299.388519,151.864288 316.208527,147.289505 
	C345.722412,139.262192 372.756744,125.501640 398.013947,108.824066 
	C429.513794,88.024361 459.851471,65.465500 490.716370,43.702209 
	C494.058105,41.345959 497.568085,39.228317 501.000000,36.999996 
z"/>
<path fill="#133E79" opacity="1.000000" stroke="none" 
	d="
M258.000000,1.000000 
	C339.000000,1.000000 420.000031,1.000000 501.000000,1.000000 
	C501.000000,7.081366 501.000000,13.071307 500.656586,19.401447 
	C489.096497,27.788122 477.980591,35.979660 466.643463,43.852680 
	C437.695312,63.955620 409.307526,84.970833 379.452087,103.631699 
	C350.774445,121.556419 320.183990,136.039978 285.474213,138.493851 
	C276.426422,139.133499 267.368103,139.624710 258.000000,140.203522 
	C258.000000,93.193321 258.000000,47.096661 258.000000,1.000000 
z"/>
<path fill="#133E79" opacity="1.000000" stroke="none" 
	d="
M1.000000,20.000000 
	C1.000000,13.677258 1.000000,7.354516 1.000000,1.000000 
	C81.687561,1.000000 162.375122,1.000000 243.542206,1.468548 
	C244.021713,47.849113 244.021713,93.761131 244.021713,139.627502 
	C228.868225,140.578232 202.292145,137.713440 187.054489,133.180786 
	C156.306229,124.034271 128.259979,109.041786 101.975731,91.116348 
	C69.391090,68.894119 37.710041,45.347340 5.611361,22.410946 
	C4.213649,21.412199 2.543332,20.794954 1.000000,20.000000 
z"/>
<path fill="#FCFDFD" opacity="1.000000" stroke="none" 
	d="
M1.000000,20.467606 
	C2.543332,20.794954 4.213649,21.412199 5.611361,22.410946 
	C37.710041,45.347340 69.391090,68.894119 101.975731,91.116348 
	C128.259979,109.041786 156.306229,124.034271 187.054489,133.180786 
	C202.292145,137.713440 228.868225,140.578232 244.021713,139.627502 
	C244.021713,93.761131 244.021713,47.849113 244.010864,1.468548 
	C248.356903,1.000000 252.713806,1.000000 257.535339,1.000000 
	C258.000000,47.096661 258.000000,93.193321 258.000000,140.203522 
	C267.368103,139.624710 276.426422,139.133499 285.474213,138.493851 
	C320.183990,136.039978 350.774445,121.556419 379.452087,103.631699 
	C409.307526,84.970833 437.695312,63.955620 466.643463,43.852680 
	C477.980591,35.979660 489.096497,27.788122 500.656586,19.870823 
	C501.000000,25.354929 501.000000,30.709860 501.000000,36.532391 
	C497.568085,39.228317 494.058105,41.345959 490.716370,43.702209 
	C459.851471,65.465500 429.513794,88.024361 398.013947,108.824066 
	C372.756744,125.501640 345.722412,139.262192 316.208527,147.289505 
	C299.388519,151.864288 282.124146,153.036041 264.811676,153.747620 
	C262.693481,153.834686 260.568634,153.759476 257.981781,153.759476 
	C257.981781,186.197205 257.981781,218.130035 257.990906,250.531433 
	C253.643097,251.000000 249.286194,251.000000 244.464645,251.000000 
	C244.000000,218.756454 244.000000,186.512894 244.000000,154.397522 
	C231.643692,153.431732 219.712585,152.785248 207.848602,151.512817 
	C182.489578,148.792999 159.527390,138.847183 136.950089,127.660263 
	C102.935219,110.806091 72.774498,88.098671 42.208927,65.979248 
	C28.739998,56.232166 15.206085,46.574871 1.350837,36.938408 
	C1.000000,31.645071 1.000000,26.290140 1.000000,20.467606 
z"/>
</svg>